<svg width="449" height="468" viewBox="0 0 449 468" fill="none" xmlns="http://www.w3.org/2000/svg">
<path d="M449 0H0V468H449V0Z" fill="white"/>
<path d="M78 205.088L142.652 199L148 203.493L142.652 209L78 205.088Z" fill="#35B3F1"/>
<path d="M142.732 179L148 184.575L142.732 190L114 184.575L142.732 179Z" fill="#35B3F1"/>
<path fill-rule="evenodd" clip-rule="evenodd" d="M277.679 149.052H161.631V136.065L131 129V138.082L153.231 143.524V155.286L178.344 199.906L156.702 246H270.734L311 199.906L277.679 149.052ZM272.833 157.42H166.638L189.472 199.906L170.888 236.987H267.477L299.411 199.906L272.833 157.42Z" fill="#F15513"/>
<path d="M142.732 221L148 225.462L142.732 231L114 225.462L142.732 221Z" fill="#35B3F1"/>
<path fill-rule="evenodd" clip-rule="evenodd" d="M157.199 246L151 263.138L165.618 268H182.881H182.374V258.334H182.881L163.452 258.395L167.611 246H157.199ZM240.426 268H206.986V258.334H240.426V268ZM262.072 267.88L276.373 268L281 263.138L276.373 258.334H261.961L262.072 267.88Z" fill="#07293E"/>
<path d="M256.119 179.587C251.625 174.277 245.414 170.519 238.446 168.895C231.479 167.27 224.14 167.869 217.568 170.599C210.994 173.33 205.551 178.038 202.078 183.998C198.607 189.958 197.299 196.839 198.357 203.575C199.416 210.311 202.783 216.529 207.936 221.267C213.09 226.005 219.746 229.001 226.871 229.791C233.999 230.581 241.201 229.119 247.365 225.636C254.742 221.465 258.02 214.834 260 208.83C258.039 208.627 253.585 208.165 253.585 208.165C251.423 213.296 249.211 217.78 244.211 220.605C239.21 223.432 233.368 224.618 227.586 223.977C221.805 223.335 216.407 220.906 212.227 217.062C208.047 213.219 205.316 208.175 204.456 202.711C203.598 197.246 204.658 191.665 207.474 186.83C210.292 181.997 214.707 178.176 220.04 175.962C225.372 173.747 231.323 173.261 236.976 174.579C242.628 175.898 247.666 178.945 251.311 183.253C251.311 183.253 254.401 180.897 256.119 179.587Z" fill="#07293E"/>
<path d="M249 199C249 208.388 240.716 216 230.5 216C220.282 216 212 208.388 212 199C212 189.61 220.282 182 230.5 182C240.716 182 249 189.61 249 199ZM217.235 199C217.235 205.732 223.174 211.189 230.5 211.189C237.826 211.189 243.765 205.732 243.765 199C243.765 192.268 237.826 186.811 230.5 186.811C223.174 186.811 217.235 192.268 217.235 199Z" fill="#07293E"/>
<path d="M227.234 205H224V193H228.184L230.981 200.653H231.019L233.814 193H238V205H234.766V197.532H234.729L232.197 205H229.801L227.271 197.532H227.234V205Z" fill="#07293E"/>
<path d="M210 265C210 273.285 202.836 280 194.001 280C185.164 280 178 273.285 178 265C178 256.715 185.164 250 194.001 250C202.836 250 210 256.715 210 265ZM185.041 265C185.041 269.639 189.052 273.4 194.001 273.4C198.949 273.4 202.961 269.639 202.961 265C202.961 260.361 198.949 256.6 194.001 256.6C189.052 256.6 185.041 260.361 185.041 265Z" fill="#35B3F1"/>
<path d="M268 265C268 273.285 260.613 280 251.499 280C242.387 280 235 273.285 235 265C235 256.715 242.387 250 251.499 250C260.613 250 268 256.715 268 265ZM242.261 265C242.261 269.639 246.396 273.4 251.499 273.4C256.602 273.4 260.739 269.639 260.739 265C260.739 260.361 256.602 256.6 251.499 256.6C246.396 256.6 242.261 260.361 242.261 265Z" fill="#35B3F1"/>
<path d="M178.3 317.09C177.51 317.09 176.775 316.96 176.095 316.7C175.425 316.43 174.84 316.055 174.34 315.575C173.85 315.085 173.465 314.52 173.185 313.88C172.915 313.23 172.78 312.52 172.78 311.75C172.78 310.98 172.915 310.275 173.185 309.635C173.465 308.985 173.85 308.42 174.34 307.94C174.84 307.45 175.425 307.075 176.095 306.815C176.765 306.545 177.5 306.41 178.3 306.41C179.09 306.41 179.82 306.545 180.49 306.815C181.16 307.075 181.74 307.445 182.23 307.925C182.73 308.405 183.115 308.97 183.385 309.62C183.665 310.27 183.805 310.98 183.805 311.75C183.805 312.52 183.665 313.23 183.385 313.88C183.115 314.53 182.73 315.095 182.23 315.575C181.74 316.055 181.16 316.43 180.49 316.7C179.82 316.96 179.09 317.09 178.3 317.09ZM178.3 316.1C178.93 316.1 179.51 315.995 180.04 315.785C180.58 315.565 181.045 315.26 181.435 314.87C181.835 314.47 182.145 314.01 182.365 313.49C182.585 312.96 182.695 312.38 182.695 311.75C182.695 311.12 182.585 310.545 182.365 310.025C182.145 309.495 181.835 309.035 181.435 308.645C181.045 308.245 180.58 307.94 180.04 307.73C179.51 307.51 178.93 307.4 178.3 307.4C177.67 307.4 177.085 307.51 176.545 307.73C176.005 307.94 175.535 308.245 175.135 308.645C174.745 309.035 174.435 309.495 174.205 310.025C173.985 310.545 173.875 311.12 173.875 311.75C173.875 312.37 173.985 312.945 174.205 313.475C174.435 314.005 174.745 314.47 175.135 314.87C175.535 315.26 176.005 315.565 176.545 315.785C177.085 315.995 177.67 316.1 178.3 316.1Z" fill="#F15513"/>
<path d="M186.293 317V306.5H187.208L194.453 315.62H193.973V306.5H195.068V317H194.153L186.923 307.88H187.403V317H186.293Z" fill="#F15513"/>
<path d="M198.495 317V306.5H199.605V316.04H205.485V317H198.495Z" fill="#F15513"/>
<path d="M207.328 317V306.5H208.438V317H207.328Z" fill="#F15513"/>
<path d="M211.855 317V306.5H212.77L220.015 315.62H219.535V306.5H220.63V317H219.715L212.485 307.88H212.965V317H211.855Z" fill="#F15513"/>
<path d="M225.047 311.195H230.597V312.14H225.047V311.195ZM225.167 316.04H231.482V317H224.057V306.5H231.257V307.46H225.167V316.04Z" fill="#F15513"/>
<path d="M238.017 317V306.5H238.932L243.732 314.69H243.252L248.007 306.5H248.922V317H247.857V308.165H248.112L243.732 315.665H243.207L238.797 308.165H239.082V317H238.017Z" fill="#F15513"/>
<path d="M250.663 317L255.463 306.5H256.558L261.358 317H260.188L255.778 307.145H256.228L251.818 317H250.663ZM252.553 314.195L252.883 313.295H258.988L259.318 314.195H252.553Z" fill="#F15513"/>
<path d="M263.095 317V306.5H267.025C267.915 306.5 268.68 306.645 269.32 306.935C269.96 307.215 270.45 307.625 270.79 308.165C271.14 308.695 271.315 309.34 271.315 310.1C271.315 310.84 271.14 311.48 270.79 312.02C270.45 312.55 269.96 312.96 269.32 313.25C268.68 313.53 267.915 313.67 267.025 313.67H263.71L264.205 313.16V317H263.095ZM270.265 317L267.565 313.19H268.765L271.48 317H270.265ZM264.205 313.25L263.71 312.725H266.995C268.045 312.725 268.84 312.495 269.38 312.035C269.93 311.575 270.205 310.93 270.205 310.1C270.205 309.26 269.93 308.61 269.38 308.15C268.84 307.69 268.045 307.46 266.995 307.46H263.71L264.205 306.935V313.25Z" fill="#F15513"/>
<path d="M275.828 317V307.46H272.138V306.5H280.628V307.46H276.938V317H275.828Z" fill="#F15513"/>
<path d="M135.744 303.352C134.338 303.352 133.124 303.055 132.102 302.463C131.079 301.864 130.292 301.014 129.738 299.914C129.191 298.807 128.918 297.489 128.918 295.959V295.939C128.918 294.41 129.195 293.094 129.748 291.994C130.301 290.887 131.086 290.038 132.102 289.445C133.124 288.853 134.338 288.557 135.744 288.557C136.942 288.557 138.007 288.791 138.938 289.26C139.868 289.729 140.611 290.373 141.164 291.193C141.717 292.007 142.027 292.935 142.092 293.977V294.133H138.645L138.625 294.035C138.56 293.547 138.397 293.114 138.137 292.736C137.883 292.359 137.551 292.062 137.141 291.848C136.737 291.633 136.271 291.525 135.744 291.525C135.093 291.525 134.53 291.704 134.055 292.062C133.586 292.414 133.221 292.919 132.961 293.576C132.707 294.234 132.58 295.018 132.58 295.93V295.949C132.58 296.867 132.707 297.658 132.961 298.322C133.221 298.98 133.589 299.488 134.064 299.846C134.54 300.204 135.103 300.383 135.754 300.383C136.275 300.383 136.734 300.282 137.131 300.08C137.535 299.872 137.867 299.585 138.127 299.221C138.387 298.85 138.557 298.42 138.635 297.932L138.654 297.814H142.102V297.971C142.03 299.019 141.717 299.947 141.164 300.754C140.617 301.561 139.878 302.196 138.947 302.658C138.023 303.12 136.955 303.352 135.744 303.352Z" fill="#07293E"/>
<path d="M144.484 303V288.908H148.068V300.119H154.016V303H144.484Z" fill="#07293E"/>
<path d="M156.398 303V288.908H166.057V291.789H159.982V294.592H165.695V297.248H159.982V300.119H166.057V303H156.398Z" fill="#07293E"/>
<path d="M175.1 303.352C173.693 303.352 172.479 303.055 171.457 302.463C170.435 301.864 169.647 301.014 169.094 299.914C168.547 298.807 168.273 297.489 168.273 295.959V295.939C168.273 294.41 168.55 293.094 169.104 291.994C169.657 290.887 170.441 290.038 171.457 289.445C172.479 288.853 173.693 288.557 175.1 288.557C176.298 288.557 177.362 288.791 178.293 289.26C179.224 289.729 179.966 290.373 180.52 291.193C181.073 292.007 181.382 292.935 181.447 293.977V294.133H178L177.98 294.035C177.915 293.547 177.753 293.114 177.492 292.736C177.238 292.359 176.906 292.062 176.496 291.848C176.092 291.633 175.627 291.525 175.1 291.525C174.449 291.525 173.885 291.704 173.41 292.062C172.941 292.414 172.577 292.919 172.316 293.576C172.062 294.234 171.936 295.018 171.936 295.93V295.949C171.936 296.867 172.062 297.658 172.316 298.322C172.577 298.98 172.945 299.488 173.42 299.846C173.895 300.204 174.458 300.383 175.109 300.383C175.63 300.383 176.089 300.282 176.486 300.08C176.89 299.872 177.222 299.585 177.482 299.221C177.743 298.85 177.912 298.42 177.99 297.932L178.01 297.814H181.457V297.971C181.385 299.019 181.073 299.947 180.52 300.754C179.973 301.561 179.234 302.196 178.303 302.658C177.378 303.12 176.311 303.352 175.1 303.352Z" fill="#07293E"/>
<path d="M187.258 299.23L187.17 294.992H187.58L192.277 288.908H196.125L191.105 295.344L189.191 296.76L187.258 299.23ZM183.84 303V288.908H187.424V303H183.84ZM192.199 303L188.371 296.994L190.979 294.68L196.418 303H192.199Z" fill="#07293E"/>
<path d="M198.312 303V288.908H201.896V294.436H207.502V288.908H211.086V303H207.502V297.316H201.896V303H198.312Z" fill="#07293E"/>
<path d="M220.188 303.352C218.97 303.352 217.906 303.133 216.994 302.697C216.089 302.261 215.383 301.652 214.875 300.871C214.374 300.083 214.123 299.159 214.123 298.098V288.908H217.717V297.756C217.717 298.303 217.811 298.771 218 299.162C218.195 299.553 218.475 299.855 218.84 300.07C219.211 300.279 219.663 300.383 220.197 300.383C220.731 300.383 221.184 300.279 221.555 300.07C221.926 299.855 222.206 299.553 222.395 299.162C222.583 298.771 222.678 298.303 222.678 297.756V288.908H226.262V298.098C226.262 299.152 226.011 300.074 225.51 300.861C225.015 301.649 224.312 302.261 223.4 302.697C222.495 303.133 221.424 303.352 220.188 303.352Z" fill="#07293E"/>
<path d="M229.309 303V288.908H235.178C236.584 288.908 237.779 289.178 238.762 289.719C239.751 290.253 240.507 291.034 241.027 292.062C241.548 293.091 241.809 294.341 241.809 295.812V295.832C241.809 297.362 241.551 298.661 241.037 299.729C240.523 300.796 239.771 301.61 238.781 302.17C237.798 302.723 236.597 303 235.178 303H229.309ZM232.893 300.109H234.572C235.347 300.109 236.001 299.953 236.535 299.641C237.069 299.322 237.473 298.85 237.746 298.225C238.02 297.593 238.156 296.815 238.156 295.891V295.871C238.156 294.999 238.013 294.26 237.727 293.654C237.447 293.042 237.04 292.58 236.506 292.268C235.972 291.955 235.327 291.799 234.572 291.799H232.893V300.109Z" fill="#07293E"/>
<path d="M244.25 303V288.908H250.119C251.525 288.908 252.72 289.178 253.703 289.719C254.693 290.253 255.448 291.034 255.969 292.062C256.49 293.091 256.75 294.341 256.75 295.812V295.832C256.75 297.362 256.493 298.661 255.979 299.729C255.464 300.796 254.712 301.61 253.723 302.17C252.74 302.723 251.538 303 250.119 303H244.25ZM247.834 300.109H249.514C250.288 300.109 250.943 299.953 251.477 299.641C252.01 299.322 252.414 298.85 252.688 298.225C252.961 297.593 253.098 296.815 253.098 295.891V295.871C253.098 294.999 252.954 294.26 252.668 293.654C252.388 293.042 251.981 292.58 251.447 292.268C250.913 291.955 250.269 291.799 249.514 291.799H247.834V300.109Z" fill="#07293E"/>
<path d="M259.191 303V288.908H268.85V291.789H262.775V294.592H268.488V297.248H262.775V300.119H268.85V303H259.191Z" fill="#07293E"/>
<path d="M276.975 303.352C275.803 303.352 274.784 303.182 273.918 302.844C273.059 302.499 272.385 302.014 271.896 301.389C271.415 300.757 271.148 300.002 271.096 299.123L271.086 298.947H274.494L274.504 299.035C274.543 299.328 274.673 299.589 274.895 299.816C275.116 300.038 275.409 300.214 275.773 300.344C276.138 300.474 276.558 300.539 277.033 300.539C277.502 300.539 277.909 300.474 278.254 300.344C278.599 300.214 278.866 300.035 279.055 299.807C279.243 299.572 279.338 299.309 279.338 299.016V299.006C279.338 298.609 279.165 298.303 278.82 298.088C278.475 297.873 277.893 297.684 277.072 297.521L275.617 297.238C274.152 296.958 273.075 296.47 272.385 295.773C271.695 295.077 271.35 294.182 271.35 293.088V293.078C271.35 292.16 271.59 291.366 272.072 290.695C272.554 290.018 273.215 289.494 274.055 289.123C274.901 288.745 275.861 288.557 276.936 288.557C278.12 288.557 279.123 288.739 279.943 289.104C280.764 289.462 281.398 289.963 281.848 290.607C282.297 291.245 282.554 291.984 282.619 292.824L282.629 292.961H279.299L279.279 292.844C279.234 292.544 279.11 292.287 278.908 292.072C278.706 291.851 278.439 291.678 278.107 291.555C277.775 291.431 277.395 291.369 276.965 291.369C276.535 291.369 276.167 291.431 275.861 291.555C275.555 291.672 275.321 291.838 275.158 292.053C274.995 292.261 274.914 292.505 274.914 292.785V292.795C274.914 293.192 275.083 293.508 275.422 293.742C275.767 293.97 276.32 294.159 277.082 294.309L278.537 294.592C279.54 294.787 280.36 295.057 280.998 295.402C281.643 295.747 282.121 296.187 282.434 296.721C282.746 297.248 282.902 297.893 282.902 298.654V298.664C282.902 299.615 282.665 300.441 282.189 301.145C281.721 301.848 281.044 302.391 280.158 302.775C279.273 303.16 278.212 303.352 276.975 303.352Z" fill="#07293E"/>
<path d="M285.383 303V288.908H294.973V291.789H288.967V295.002H294.416V297.746H288.967V303H285.383Z" fill="#07293E"/>
<path d="M295.578 303L300.324 288.908H303.488V292.004H302.443L299.348 303H295.578ZM298.352 299.914L299.162 297.326H305.793L306.604 299.914H298.352ZM305.686 303L302.6 292.004V288.908H304.709L309.455 303H305.686Z" fill="#07293E"/>
<path d="M310.773 303L315.891 294.572L315.08 297.521V295.861L310.783 288.908H314.973L317.551 293.674H319.211L316.896 295.09L320.227 288.908H324.211L319.729 295.9V297.561L318.889 294.621L324.172 303H320.139L317.404 298.43H315.744L318.127 297.062L314.592 303H310.773Z" fill="#07293E"/>
</svg>
