<svg width="449" height="468" viewBox="0 0 449 468" fill="none" xmlns="http://www.w3.org/2000/svg">
<rect width="449" height="468" fill="white"/>
<path d="M106 230.303L171.986 223.357L177.444 228.484L171.986 234.768L106 230.303Z" fill="#35B3F1"/>
<path d="M171.986 202.023L177.444 208.142L171.986 214.096L142.218 208.142L171.986 202.023Z" fill="#35B3F1"/>
<path fill-rule="evenodd" clip-rule="evenodd" d="M309.965 177.216H191.144V164.122L159.78 157V166.157L182.543 171.642V183.5L208.257 228.484L186.096 274.953H196.73H302.853L344.082 228.484L309.965 177.216ZM305.003 185.65H196.27L219.651 228.484L200.622 265.866H299.519L332.216 228.484L305.003 185.65Z" fill="#F15513"/>
<path d="M171.986 247.833L177.444 252.629L171.986 258.583L142.218 252.629L171.986 247.833Z" fill="#35B3F1"/>
<path fill-rule="evenodd" clip-rule="evenodd" d="M186.096 274.953L179.766 293.338L190.728 298.554H212.326H211.809V288.185H212.326L192.483 288.25L196.73 274.953H186.096ZM271.101 298.554H236.947V288.185H271.101V298.554ZM293.209 298.425L307.815 298.554L312.541 293.338L307.815 288.185H293.097L293.209 298.425Z" fill="#07293E"/>
<path d="M295.536 202.583C290.382 196.166 283.258 191.625 275.265 189.662C267.272 187.699 258.855 188.423 251.315 191.722C243.774 195.021 237.53 200.711 233.547 207.914C229.564 215.117 228.064 223.431 229.279 231.571C230.493 239.711 234.355 247.225 240.267 252.951C246.179 258.678 253.813 262.297 261.988 263.251C270.163 264.206 278.424 262.441 285.496 258.23C293.958 253.192 297.717 245.177 299.988 237.922C297.74 237.676 292.631 237.119 292.631 237.119C290.151 243.318 287.614 248.736 281.877 252.152C276.141 255.568 269.439 256.999 262.808 256.226C256.176 255.452 249.984 252.515 245.189 247.87C240.393 243.225 237.26 237.13 236.275 230.527C235.29 223.924 236.507 217.18 239.737 211.337C242.968 205.495 248.033 200.879 254.15 198.202C260.267 195.526 267.094 194.939 273.578 196.532C280.062 198.124 285.841 201.807 290.022 207.012C290.022 207.012 293.566 204.165 295.536 202.583Z" fill="#07293E"/>
<path d="M285.305 227.801C285.305 238.96 276.259 248.007 265.1 248.007C253.941 248.007 244.895 238.96 244.895 227.801C244.895 216.642 253.941 207.596 265.1 207.596C276.259 207.596 285.305 216.642 285.305 227.801ZM250.612 227.801C250.612 235.803 257.098 242.289 265.1 242.289C273.101 242.289 279.588 235.803 279.588 227.801C279.588 219.8 273.101 213.314 265.1 213.314C257.098 213.314 250.612 219.8 250.612 227.801Z" fill="#07293E"/>
<path d="M261.074 235.2H257.503V220.18H262.124L265.212 229.759H265.254L268.342 220.18H272.964V235.2H269.393V225.852H269.351L266.557 235.2H263.91L261.116 225.852H261.074V235.2Z" fill="#07293E"/>
<path d="M240.818 295.462C240.818 304.596 233.414 312 224.28 312C215.146 312 207.742 304.596 207.742 295.462C207.742 286.329 215.146 278.924 224.28 278.924C233.414 278.924 240.818 286.329 240.818 295.462ZM215.019 295.462C215.019 300.577 219.165 304.723 224.28 304.723C229.395 304.723 233.541 300.577 233.541 295.462C233.541 290.347 229.395 286.201 224.28 286.201C219.165 286.201 215.019 290.347 215.019 295.462Z" fill="#35B3F1"/>
<path d="M299.377 295.462C299.377 304.596 291.972 312 282.839 312C273.705 312 266.301 304.596 266.301 295.462C266.301 286.329 273.705 278.924 282.839 278.924C291.972 278.924 299.377 286.329 299.377 295.462ZM273.577 295.462C273.577 300.577 277.724 304.723 282.839 304.723C287.954 304.723 292.1 300.577 292.1 295.462C292.1 290.347 287.954 286.201 282.839 286.201C277.724 286.201 273.577 290.347 273.577 295.462Z" fill="#35B3F1"/>
</svg>
